<?xml version="1.0" standalone="no"?>
<!DOCTYPE svg PUBLIC "-//W3C//DTD SVG 20010904//EN"
 "http://www.w3.org/TR/2001/REC-SVG-20010904/DTD/svg10.dtd">
<svg version="1.0" xmlns="http://www.w3.org/2000/svg"
 width="600.000000pt" height="600.000000pt" viewBox="0 0 600.000000 600.000000"
 preserveAspectRatio="xMidYMid meet">
<g transform="translate(0.000000,600.000000) scale(0.100000,-0.100000)"
fill="#000000" stroke="none">
<path d="M1676 4587 c-13 -9 -30 -73 -62 -227 -25 -118 -67 -321 -94 -450 -27
-129 -52 -252 -56 -273 l-6 -38 -281 1 c-163 1 -284 -3 -289 -8 -5 -5 -8 -20
-6 -33 l3 -24 311 -3 c241 -2 314 1 322 10 5 7 15 38 21 68 10 57 127 625 137
670 5 25 5 25 -13 5 -10 -10 -19 -26 -20 -35 -1 -8 -7 -37 -13 -65 -6 -27 -20
-95 -30 -150 -22 -118 -26 -139 -46 -225 -17 -74 -18 -78 -29 -140 -6 -36 -9
-41 -16 -25 -5 14 -8 15 -8 5 -1 -9 4 -21 11 -28 8 -8 9 -12 1 -12 -6 0 -9 -9
-6 -20 3 -12 0 -20 -6 -20 -7 0 -10 -3 -8 -7 3 -5 -118 -8 -269 -8 -157 0
-274 4 -274 9 0 5 -9 1 -19 -8 -12 -11 -21 -14 -26 -7 -3 6 0 11 7 11 10 0 9
3 -2 11 -12 9 -12 10 4 5 11 -4 23 -1 28 6 6 11 8 10 8 0 0 -7 4 -11 9 -8 4 3
121 6 259 6 271 1 257 -1 269 55 3 11 6 27 8 35 2 8 4 25 4 38 1 15 5 21 13
16 6 -4 8 -3 5 3 -4 6 -2 37 5 69 6 33 12 66 13 74 9 67 29 139 36 129 4 -7 7
7 6 32 -1 51 12 121 22 115 3 -2 7 21 8 51 2 30 6 60 10 66 4 7 6 20 5 30 -2
9 3 17 10 17 9 0 9 3 -2 10 -8 5 -10 10 -4 10 7 0 15 21 20 48 4 26 8 52 9 57
1 6 3 20 3 33 1 13 5 21 10 19 4 -3 8 7 8 21 4 80 26 87 35 12 4 -27 9 -57 13
-65 3 -8 0 -15 -7 -15 -7 0 -8 -3 -2 -8 6 -4 11 -16 12 -27 1 -11 4 -49 7 -85
4 -36 8 -85 11 -110 3 -25 8 -72 11 -105 8 -89 13 -134 20 -190 3 -27 7 -74 7
-102 0 -29 3 -53 6 -53 3 0 6 -20 6 -45 0 -25 3 -45 7 -45 5 0 6 -11 2 -25 -3
-14 -1 -31 5 -38 12 -15 11 -78 -1 -70 -5 2 -8 -1 -8 -6 0 -6 4 -11 9 -11 5 0
11 -17 15 -38 7 -44 29 -52 51 -18 16 25 35 123 28 145 -2 9 3 5 11 -9 18 -29
20 -23 5 16 -12 34 5 156 27 191 16 25 19 46 4 23 -13 -19 -3 62 12 102 5 15
7 32 3 37 -3 6 -1 11 4 11 6 0 11 7 11 16 0 8 -4 13 -9 10 -5 -4 -4 4 2 17 6
13 17 24 24 24 16 0 17 -9 1 -26 -9 -10 -9 -12 -1 -7 7 4 12 0 11 -11 0 -10 5
-32 10 -50 6 -17 8 -34 4 -37 -3 -3 0 -16 5 -29 19 -38 33 -89 27 -98 -3 -5 2
-29 11 -55 8 -25 13 -50 10 -55 -4 -5 -1 -9 5 -9 8 0 10 -10 6 -27 -5 -22 -4
-25 5 -13 9 13 10 12 5 -3 -8 -26 13 -65 39 -69 16 -4 22 -1 18 9 -3 7 0 13 6
13 6 0 11 5 11 12 0 6 12 26 26 45 21 27 29 32 40 22 14 -12 10 -29 -7 -29 -6
0 -7 6 -3 13 5 8 2 8 -9 -2 -18 -15 -23 -26 -7 -16 13 8 13 -5 0 -25 -8 -12
-10 -12 -10 -1 0 8 -3 11 -6 8 -4 -4 -1 -13 5 -21 9 -11 9 -16 0 -22 -8 -4 -9
-3 -5 4 4 8 2 10 -8 6 -8 -3 -13 -11 -10 -18 3 -7 -6 -25 -20 -41 -14 -16 -22
-33 -19 -38 3 -6 1 -7 -5 -3 -7 4 -12 2 -12 -3 0 -34 -31 6 -35 44 -4 50 -19
116 -26 120 -4 3 -4 16 1 30 8 20 6 27 -10 35 -12 6 -17 16 -13 26 9 23 -27
96 -45 89 -7 -3 -16 -5 -18 -5 -2 0 -4 -7 -4 -16 0 -8 -3 -13 -7 -11 -5 3 -9
-14 -9 -36 -2 -39 -8 -85 -14 -97 -1 -3 -3 -23 -4 -45 -2 -48 -31 -224 -51
-315 -8 -36 -15 -86 -15 -112 0 -27 -5 -48 -11 -48 -5 0 -7 -6 -3 -12 4 -7 0
-6 -9 2 -9 8 -18 39 -21 70 -3 30 -11 107 -19 170 -7 63 -13 143 -13 177 1 33
-2 59 -6 56 -5 -2 -8 4 -8 14 0 10 -5 59 -11 108 -6 50 -11 111 -11 138 -1 26
-5 47 -9 47 -5 0 -6 13 -3 28 3 16 1 48 -6 72 -9 33 -9 45 0 50 9 6 9 9 1 14
-6 4 -9 11 -6 16 3 5 2 18 -3 27 -6 10 -12 43 -15 73 -4 37 -3 47 2 30 l9 -25
1 28 c1 15 -3 27 -8 27 -5 0 -12 15 -17 33 l-8 32 -3 -33 c-3 -19 14 -208 37
-420 84 -795 80 -773 129 -757 26 8 20 -18 82 380 28 182 52 331 53 332 2 2
20 -77 40 -175 21 -97 43 -183 49 -190 24 -31 52 -7 127 111 41 65 76 115 77
110 24 -66 142 -309 156 -317 29 -19 49 5 79 95 l28 84 443 -3 c369 -2 446 0
462 12 19 14 19 15 -3 107 -54 228 -70 509 -36 646 36 150 100 210 244 229 63
8 183 -18 257 -57 39 -20 59 -26 68 -19 15 13 25 3 17 -18 -5 -14 -4 -15 10
-2 14 13 14 16 0 26 -9 7 -23 9 -31 6 -9 -3 -12 -1 -7 6 5 8 1 10 -10 5 -13
-5 -15 -3 -9 7 5 8 4 11 -3 6 -6 -3 -17 0 -25 8 -8 8 -17 12 -20 9 -4 -3 -22
4 -42 16 -20 11 -49 21 -66 21 -16 0 -29 4 -29 9 0 4 -35 6 -77 4 -109 -6
-112 -6 -107 -15 5 -7 1 -9 -32 -12 -6 -1 -20 -8 -30 -16 -10 -8 -15 -10 -11
-3 4 6 3 14 -2 18 -6 3 -8 -3 -6 -15 2 -11 -1 -20 -7 -20 -6 0 -17 -8 -25 -17
-8 -10 -11 -12 -7 -4 5 10 3 12 -5 7 -7 -5 -10 -15 -7 -23 3 -8 1 -11 -4 -8
-6 3 -10 -1 -10 -10 0 -12 -5 -15 -16 -11 -13 5 -14 3 -7 -6 7 -9 5 -29 -7
-63 -15 -46 -18 -48 -28 -29 -6 11 -8 31 -5 43 5 18 8 19 21 9 13 -11 14 -10
4 8 -10 18 -5 30 34 85 25 35 47 63 49 61 3 -1 19 5 35 13 17 9 35 13 40 10 6
-3 10 -1 10 6 0 6 8 9 20 6 12 -3 18 -1 14 5 -8 13 199 2 225 -11 10 -6 21 -8
24 -4 3 3 22 -4 42 -16 20 -11 43 -21 52 -21 9 0 13 -3 10 -6 -4 -4 7 -14 22
-23 16 -9 47 -26 69 -38 22 -12 42 -20 45 -17 3 3 8 -4 12 -16 4 -13 2 -27 -5
-34 -10 -8 -11 -8 -5 4 8 13 6 13 -8 1 -11 -9 -29 -11 -54 -7 -23 4 -33 3 -25
-2 8 -5 -8 -7 -40 -5 -81 5 -93 6 -98 14 -3 4 -29 10 -59 14 -30 4 -62 8 -73
10 -10 2 -16 0 -13 -6 4 -5 11 -6 17 -3 7 4 8 2 4 -4 -4 -7 -14 -12 -22 -12
-12 0 -13 -3 -2 -16 36 -43 87 -94 94 -94 5 0 2 5 -6 10 -8 5 -10 10 -5 10 21
0 40 -19 29 -30 -13 -13 -77 7 -68 22 4 6 1 9 -7 6 -16 -5 -41 17 -47 41 -10
41 -6 93 8 101 9 6 17 5 21 -2 4 -7 9 -7 13 1 4 6 12 11 18 11 6 0 5 -7 -3
-17 -13 -16 -12 -17 3 -4 18 13 73 8 64 -7 -2 -4 10 -8 27 -8 18 -1 46 -4 62
-7 33 -5 65 7 64 26 0 8 -2 8 -5 1 -4 -8 -20 -8 -62 1 -31 7 -83 19 -114 26
-70 16 -103 4 -123 -45 -20 -47 -2 -99 45 -137 66 -53 256 -75 375 -43 79 20
126 49 230 139 89 78 149 115 186 115 44 0 104 -25 140 -60 124 -118 102 -507
-52 -892 -80 -202 -150 -313 -219 -348 l-39 -20 -29 25 c-35 29 -48 72 -62
200 -26 248 -100 354 -237 343 -95 -8 -134 -65 -183 -269 -49 -199 -52 -210
-78 -240 -55 -66 -125 -22 -198 123 -38 76 -48 88 -76 88 -36 0 -40 -36 -12
-92 39 -78 88 -152 121 -182 81 -76 200 -50 253 55 11 21 36 103 55 183 51
217 72 256 132 256 89 0 119 -67 152 -333 26 -221 157 -292 300 -163 43 38
118 163 164 273 114 271 166 494 167 704 0 129 -11 192 -47 265 -34 70 -85
116 -157 143 -118 44 -182 21 -346 -125 -41 -37 -100 -78 -130 -93 -49 -23
-67 -26 -165 -26 -128 1 -188 15 -211 51 -9 13 -14 27 -11 30 3 3 45 -4 93
-16 145 -37 289 -17 289 39 0 18 -10 30 -40 46 -22 12 -67 38 -99 59 -241 147
-516 113 -612 -77 -14 -27 -34 -83 -45 -125 -34 -135 -22 -449 26 -631 8 -32
15 -62 15 -65 0 -4 -192 -6 -427 -6 -236 0 -436 0 -445 0 -12 0 -22 -17 -34
-55 -10 -30 -20 -53 -22 -50 -3 3 -33 67 -67 142 -35 76 -70 142 -79 148 -25
16 -45 -3 -111 -108 -33 -53 -63 -97 -66 -97 -4 0 -9 19 -13 43 -15 93 -90
423 -99 435 -14 17 -54 15 -61 -4 -7 -17 -45 -250 -77 -463 -10 -74 -21 -137
-23 -139 -5 -5 3 -77 -91 818 -14 135 -28 260 -31 277 -6 40 -34 58 -58 40z
m2892 -63 c13 -9 22 -11 22 -4 0 7 7 7 23 -2 12 -7 25 -11 30 -10 4 1 7 -3 7
-9 0 -6 7 -9 14 -6 10 4 13 1 10 -8 -3 -7 -12 -16 -20 -19 -9 -3 -12 -1 -9 4
4 6 -8 10 -27 10 -25 0 -29 3 -18 10 12 8 10 10 -10 11 -93 5 -117 -1 -192
-53 -35 -23 -66 -43 -70 -44 -5 -1 -11 -2 -15 -3 -5 -1 -1 -6 7 -11 13 -8 13
-10 -1 -10 -10 0 -30 -15 -45 -33 -16 -17 -33 -33 -39 -35 -5 -2 -17 -10 -26
-18 -9 -8 -26 -17 -39 -19 -12 -2 -28 -9 -35 -15 -23 -19 -215 -34 -231 -17
-3 3 -12 3 -19 0 -20 -7 -45 10 -36 25 6 9 15 10 34 3 15 -6 33 -8 41 -5 8 3
17 1 21 -5 3 -6 11 -11 16 -11 6 0 7 5 4 10 -3 6 3 10 15 10 12 0 18 -4 15
-10 -4 -7 3 -7 20 0 15 6 31 8 35 5 5 -3 41 10 80 30 38 19 70 32 70 29 0 -4
9 3 19 15 11 13 25 20 31 16 6 -3 10 -3 9 2 -3 20 2 27 11 13 8 -13 10 -13 10
1 0 16 25 43 90 97 47 39 78 55 96 48 8 -3 12 -2 9 3 -5 9 16 16 55 20 9 0 26
-6 38 -15z m138 -80 c-3 -8 0 -13 7 -11 7 1 11 -6 11 -15 -1 -10 2 -16 6 -13
19 12 45 -58 59 -157 5 -37 8 -75 6 -85 -2 -10 -6 -43 -9 -73 -4 -41 -3 -51 5
-40 9 12 9 11 4 -5 -4 -11 -10 -40 -12 -65 -3 -25 -10 -51 -16 -59 -9 -12 -9
-13 1 -7 8 5 12 1 12 -11 0 -33 -12 -63 -23 -56 -7 4 -8 -6 -4 -30 6 -37 -7
-53 -16 -19 -4 13 -5 11 -6 -5 0 -13 3 -23 7 -23 5 0 7 -13 4 -29 -3 -20 -8
-28 -18 -24 -10 3 -12 0 -8 -10 3 -8 -1 -38 -10 -65 -8 -28 -12 -53 -9 -56 4
-3 1 -6 -5 -6 -6 0 -9 -6 -6 -13 3 -8 -2 -20 -10 -27 -9 -7 -13 -16 -10 -21 3
-5 0 -9 -6 -9 -7 0 -9 -7 -6 -17 4 -10 4 -14 0 -10 -4 4 -15 -14 -23 -39 -9
-25 -21 -45 -26 -45 -14 0 -19 41 -6 41 6 0 11 7 11 16 0 8 5 12 11 8 8 -4 9
1 4 16 -5 17 -4 21 6 15 9 -6 11 -2 7 13 -4 12 -2 25 4 28 5 3 7 13 3 21 -4
13 -3 14 10 3 13 -11 14 -10 9 5 -4 10 -1 21 7 26 10 6 10 9 2 9 -7 0 -13 7
-13 16 0 8 3 13 8 11 4 -3 8 6 9 20 0 14 7 30 13 37 10 8 12 7 7 -7 -4 -10 -3
-16 2 -13 5 4 7 25 4 48 -5 32 -3 39 7 33 8 -5 11 -3 8 6 -3 8 1 34 8 59 7 25
15 64 19 88 4 23 10 42 13 42 7 0 13 119 12 225 -1 33 -7 81 -15 108 -10 35
-11 47 -2 47 9 0 9 2 1 8 -11 7 -45 67 -44 78 1 3 -11 14 -25 26 -20 16 -23
23 -14 34 14 17 43 -1 35 -22z m-1321 -163 c5 -16 4 -21 -4 -17 -6 4 -11 2
-11 -3 0 -6 4 -11 10 -11 5 0 7 -7 3 -16 -5 -13 -7 -13 -14 -2 -6 9 -9 9 -9 1
0 -6 4 -14 9 -17 4 -3 8 -25 8 -48 0 -34 -1 -38 -8 -20 -13 35 -18 26 -7 -14
5 -20 7 -59 4 -88 -3 -31 -2 -41 3 -26 5 16 8 -9 8 -71 1 -53 5 -105 11 -115
16 -32 24 -104 11 -104 -7 0 -4 -9 7 -21 10 -12 18 -22 16 -23 -2 0 -1 -12 2
-26 3 -14 8 -36 10 -50 3 -14 5 -25 6 -25 1 0 3 -8 5 -17 3 -17 -24 -18 -448
-20 -249 0 -458 -1 -464 -1 -7 1 -10 -3 -7 -8 3 -5 -1 -19 -8 -31 -7 -13 -11
-29 -10 -36 2 -7 -2 -11 -9 -10 -6 2 -14 -3 -17 -11 -3 -8 0 -11 7 -7 14 9 14
-6 0 -38 -7 -14 -17 -22 -25 -19 -10 4 -12 0 -8 -11 3 -9 3 -16 0 -16 -8 0
-46 77 -46 95 0 8 -4 15 -8 15 -13 0 -11 33 2 50 9 13 9 13 -6 2 -15 -12 -19
-9 -32 22 -8 20 -12 44 -9 53 4 11 2 14 -5 9 -14 -8 -36 30 -28 50 3 9 1 12
-4 9 -6 -3 -10 -2 -10 2 0 12 -38 14 -45 2 -4 -5 -13 -5 -24 1 -10 5 -20 8
-22 7 -2 -1 2 4 10 11 8 6 12 12 8 12 -4 0 1 10 13 22 11 12 20 28 20 36 0 12
3 12 17 1 14 -12 16 -12 9 1 -4 8 0 6 8 -4 9 -11 16 -28 16 -37 0 -10 5 -21
10 -24 6 -3 10 -15 10 -26 0 -11 4 -17 10 -14 6 4 7 -1 3 -11 -5 -13 -3 -15 7
-9 9 6 11 4 6 -4 -5 -7 -1 -20 8 -30 10 -11 14 -25 10 -36 -5 -12 -4 -16 3
-12 13 8 27 -20 24 -48 -2 -11 0 -17 5 -12 8 8 44 -21 44 -36 0 -6 -9 -2 -20
8 -28 26 -25 13 4 -14 l23 -22 -1 28 c0 15 4 27 10 26 5 -1 11 7 12 18 4 42 6
48 14 43 5 -4 8 2 6 12 -3 18 15 19 431 22 299 2 439 6 448 14 13 10 14 58 2
68 -4 3 -9 28 -12 55 -3 28 -13 102 -22 165 -15 111 -15 336 1 362 4 5 6 29 6
51 -1 42 8 38 23 -12z m690 -581 c4 -6 11 -7 17 -4 6 4 9 1 6 -7 -3 -8 -21
-15 -44 -16 -21 -1 -46 -3 -55 -5 -16 -4 -53 -36 -55 -47 -9 -48 -18 -70 -27
-64 -5 3 -7 1 -4 -4 4 -6 0 -30 -8 -53 -8 -23 -14 -44 -13 -48 1 -4 -3 -18 -9
-32 -12 -28 -33 -114 -37 -153 -1 -14 -8 -33 -16 -41 -7 -9 -9 -16 -6 -16 4 0
1 -6 -6 -14 -7 -8 -20 -12 -29 -11 -10 2 -15 -4 -15 -17 1 -22 -9 -25 -74 -29
-39 -3 -84 17 -75 32 6 8 -8 13 -28 10 -4 -1 -2 9 4 21 11 20 11 22 -3 10 -9
-7 -19 -9 -22 -4 -3 5 -21 39 -41 77 -20 37 -43 74 -51 82 -12 12 -12 18 -3
30 11 12 14 12 22 -4 6 -10 13 -20 17 -23 15 -11 60 -102 55 -111 -4 -5 -1
-17 5 -26 11 -17 11 -17 6 0 -9 27 8 20 27 -13 10 -16 26 -34 35 -39 21 -10
112 -21 109 -12 0 3 5 16 13 28 11 18 17 20 29 10 12 -10 13 -9 2 10 -9 19 -9
22 3 17 11 -4 13 0 9 17 -4 14 -2 20 5 16 15 -10 21 14 10 37 -8 14 -7 16 2
11 8 -5 11 -3 8 6 -3 8 -1 24 3 37 5 13 11 38 14 55 11 71 23 119 33 129 6 6
8 17 5 26 -5 11 -3 13 7 7 10 -6 12 -4 7 8 -4 12 -1 17 11 17 15 0 15 2 2 10
-11 7 -11 10 -2 10 7 0 11 4 8 9 -8 12 19 33 30 23 4 -4 2 1 -5 11 -7 9 -12
17 -10 18 2 0 11 2 21 4 9 2 24 8 35 14 23 13 70 14 78 1z m81 -47 c6 -13 14
-20 19 -15 5 4 5 2 1 -5 -7 -13 13 -63 25 -63 4 0 8 -8 8 -17 0 -10 5 -45 12
-78 6 -33 12 -78 14 -101 6 -81 17 -144 25 -139 5 3 11 -7 15 -23 6 -29 49
-62 80 -62 9 0 14 -4 11 -9 -4 -5 3 -7 14 -4 11 3 17 10 13 16 -4 6 0 8 11 4
10 -4 15 -3 11 3 -4 6 6 18 22 27 49 28 142 169 125 189 -4 5 2 2 12 -6 18
-14 19 -14 7 8 -7 13 -8 22 -2 22 16 0 21 -16 15 -49 -6 -27 -9 -29 -22 -19
-13 11 -14 10 -3 -10 9 -18 9 -22 -1 -20 -6 2 -12 -3 -13 -10 0 -7 -6 -16 -13
-21 -8 -5 -13 -11 -13 -15 3 -20 -3 -30 -44 -72 -25 -25 -45 -42 -45 -38 0 4
-9 -1 -19 -11 -23 -20 -115 -30 -108 -12 2 7 13 10 23 9 10 -2 16 -1 12 3 -3
3 -14 8 -23 9 -9 1 -21 9 -26 17 -7 10 -8 5 -4 -16 6 -29 6 -29 -7 -7 -8 12
-18 19 -22 15 -5 -4 -7 7 -4 24 4 26 2 30 -9 22 -10 -9 -13 -7 -13 10 0 11 -4
21 -10 21 -5 0 -7 7 -4 15 4 8 1 21 -5 29 -6 7 -11 29 -11 47 -1 87 -6 135
-14 140 -4 4 -9 27 -10 53 0 25 -4 46 -8 46 -5 0 -8 6 -8 13 0 7 -9 22 -19 34
-12 13 -16 25 -11 34 13 21 2 29 -25 19 -14 -5 -25 -6 -25 -1 0 30 50 25 66
-6z"/>
<path d="M4380 4465 c-7 -9 -8 -15 -2 -15 5 0 12 7 16 15 3 8 4 15 2 15 -2 0
-9 -7 -16 -15z"/>
<path d="M4330 4419 c0 -5 5 -7 10 -4 6 3 10 8 10 11 0 2 -4 4 -10 4 -5 0 -10
-5 -10 -11z"/>
<path d="M4235 4329 c-4 -6 -5 -12 -2 -15 2 -3 7 2 10 11 7 17 1 20 -8 4z"/>
<path d="M4166 4301 c-4 -5 -2 -12 3 -15 5 -4 12 -2 15 3 4 5 2 12 -3 15 -5 4
-12 2 -15 -3z"/>
<path d="M3390 3691 c0 -6 4 -13 10 -16 6 -3 7 1 4 9 -7 18 -14 21 -14 7z"/>
<path d="M2360 3580 c0 -5 5 -10 11 -10 5 0 7 5 4 10 -3 6 -8 10 -11 10 -2 0
-4 -4 -4 -10z"/>
<path d="M2727 3563 c94 -2 252 -2 350 0 98 1 21 2 -172 2 -192 1 -273 -1
-178 -2z"/>
<path d="M2501 3514 c0 -11 3 -14 6 -6 3 7 2 16 -1 19 -3 4 -6 -2 -5 -13z"/>
<path d="M2420 3440 c0 -5 5 -10 11 -10 5 0 7 5 4 10 -3 6 -8 10 -11 10 -2 0
-4 -4 -4 -10z"/>
<path d="M3547 3279 c7 -7 15 -10 18 -7 3 3 -2 9 -12 12 -14 6 -15 5 -6 -5z"/>
<path d="M4221 3384 c0 -11 3 -14 6 -6 3 7 2 16 -1 19 -3 4 -6 -2 -5 -13z"/>
<path d="M4504 3238 c-12 -19 -14 -39 -3 -32 5 3 7 9 4 14 -3 4 1 10 7 13 7 2
10 7 7 11 -4 4 -11 1 -15 -6z"/>
<path d="M3547 4529 c7 -7 15 -10 18 -7 3 3 -2 9 -12 12 -14 6 -15 5 -6 -5z"/>
<path d="M1711 4334 c0 -11 3 -14 6 -6 3 7 2 16 -1 19 -3 4 -6 -2 -5 -13z"/>
<path d="M3720 4316 c0 -2 7 -7 16 -10 8 -3 12 -2 9 4 -6 10 -25 14 -25 6z"/>
<path d="M1731 4134 c0 -11 3 -14 6 -6 3 7 2 16 -1 19 -3 4 -6 -2 -5 -13z"/>
<path d="M1963 3915 c-3 -9 -3 -19 1 -22 3 -4 6 1 6 10 0 8 6 18 13 20 9 4 9
6 -1 6 -7 1 -15 -6 -19 -14z"/>
<path d="M1551 3904 c0 -11 3 -14 6 -6 3 7 2 16 -1 19 -3 4 -6 -2 -5 -13z"/>
<path d="M2101 3534 c0 -11 3 -14 6 -6 3 7 2 16 -1 19 -3 4 -6 -2 -5 -13z"/>
<path d="M2121 3507 c-13 -21 -12 -21 5 -5 10 10 16 20 13 22 -3 3 -11 -5 -18
-17z"/>
<path d="M1901 3504 c0 -11 3 -14 6 -6 3 7 2 16 -1 19 -3 4 -6 -2 -5 -13z"/>
<path d="M1801 3474 c0 -11 3 -14 6 -6 3 7 2 16 -1 19 -3 4 -6 -2 -5 -13z"/>
<path d="M3020 2859 c-7 -11 -10 -23 -7 -25 2 -2 9 7 15 21 14 30 7 33 -8 4z"/>
<path d="M3720 2865 c0 -9 9 -15 25 -15 24 0 25 -2 25 -70 l0 -70 -26 10 c-45
17 -119 12 -139 -10 -20 -22 -30 -93 -21 -145 14 -70 58 -89 141 -60 24 9 41
11 43 5 2 -6 19 -10 38 -10 25 0 34 4 34 16 0 11 -6 15 -20 11 -19 -5 -20 0
-20 174 l0 179 -40 0 c-29 0 -40 -4 -40 -15z m40 -180 c5 -3 10 -35 10 -71 0
-71 -3 -74 -82 -89 -50 -10 -68 12 -68 81 0 85 11 98 76 91 29 -3 58 -8 64
-12z"/>
<path d="M1276 2860 c-67 -21 -96 -76 -96 -182 1 -97 25 -153 77 -175 35 -14
71 -14 191 -1 8 1 12 19 12 55 0 45 -3 53 -19 53 -16 0 -18 -5 -14 -39 l5 -39
-58 -8 c-48 -6 -65 -3 -93 12 -52 28 -62 55 -59 157 3 83 5 90 31 113 24 21
38 24 103 24 l76 0 -4 -37 c-2 -29 1 -38 15 -41 14 -3 17 4 17 46 0 35 -4 52
-15 56 -30 11 -140 15 -169 6z"/>
<path d="M3423 2826 c-24 -34 -29 -47 -20 -54 9 -7 23 1 51 28 33 33 37 41 26
54 -18 22 -21 21 -57 -28z"/>
<path d="M2863 2845 c0 -9 10 -15 26 -15 l26 0 -3 -153 c-3 -151 -3 -153 -25
-153 -12 1 -22 -5 -22 -13 0 -9 18 -13 68 -15 59 -1 67 1 67 17 0 14 -6 18
-27 15 l-28 -3 -5 141 c-3 93 -2 140 5 137 6 -2 32 -51 59 -109 33 -68 55
-104 66 -104 10 0 33 35 65 101 28 55 55 104 60 109 7 6 8 -39 5 -133 l-5
-142 -27 3 c-22 3 -28 -1 -28 -15 0 -16 9 -18 70 -18 62 0 70 2 70 19 0 14 -6
17 -25 14 l-25 -5 0 153 0 154 25 0 c16 0 25 6 25 15 0 11 -12 15 -45 15 l-45
0 -58 -116 -58 -116 -59 116 -59 116 -46 0 c-35 0 -47 -4 -47 -15z m357 -9 c0
-3 -4 -8 -10 -11 -5 -3 -10 -1 -10 4 0 6 5 11 10 11 6 0 10 -2 10 -4z"/>
<path d="M3900 2820 c0 -25 4 -30 25 -30 21 0 25 5 25 30 0 25 -4 30 -25 30
-21 0 -25 -5 -25 -30z"/>
<path d="M2110 2775 c0 -38 -3 -45 -20 -45 -13 0 -20 -7 -20 -19 0 -14 5 -18
20 -14 19 5 20 0 20 -85 0 -106 11 -125 69 -120 49 4 49 31 1 38 l-35 5 -3 84
-3 83 35 -4 c27 -3 36 0 39 14 4 15 -1 18 -35 18 l-40 0 4 45 c3 38 0 45 -14
45 -15 0 -18 -9 -18 -45z"/>
<path d="M1557 2724 c-15 -8 -32 -26 -37 -40 -13 -33 -13 -120 0 -145 22 -41
91 -58 169 -43 27 6 31 10 31 40 0 27 -4 34 -20 34 -15 0 -19 -6 -17 -22 2
-19 -3 -24 -32 -26 -56 -6 -81 6 -97 43 -8 19 -14 37 -14 40 0 3 43 5 95 5
107 0 111 4 80 75 -22 54 -97 72 -158 39z m113 -34 c38 -38 27 -48 -58 -52
l-78 -3 14 27 c25 51 86 64 122 28z"/>
<path d="M2380 2720 c-30 -11 -56 -19 -57 -20 -2 0 -3 7 -3 15 0 10 -11 15
-35 15 -24 0 -35 -5 -35 -15 0 -8 9 -15 19 -15 18 0 20 -9 23 -85 3 -83 3 -85
-20 -85 -16 0 -22 -5 -20 -16 5 -25 122 -24 126 1 3 14 -1 17 -22 13 l-27 -5
3 75 3 75 38 13 c34 12 37 12 37 -7 0 -12 7 -19 20 -19 17 0 20 7 20 40 0 22
-3 40 -7 40 -5 -1 -33 -9 -63 -20z"/>
<path d="M2533 2730 c-38 -15 -58 -58 -58 -123 0 -54 3 -61 33 -88 54 -49 151
-38 185 21 34 57 15 160 -34 185 -31 16 -92 19 -126 5z m111 -41 c22 -18 26
-28 26 -75 0 -41 -5 -59 -20 -74 -26 -26 -80 -26 -111 -1 -20 16 -24 28 -24
76 0 48 4 60 24 76 30 25 72 24 105 -2z"/>
<path d="M3375 2731 c-44 -18 -59 -48 -59 -118 0 -61 2 -68 32 -94 34 -30 79
-37 151 -23 27 6 31 10 31 40 0 27 -4 34 -20 34 -15 0 -20 -7 -20 -25 0 -23
-4 -25 -45 -25 -51 0 -95 32 -95 70 0 19 6 20 90 20 l90 0 0 28 c0 48 -12 72
-41 87 -30 16 -82 19 -114 6z m82 -27 c12 -3 26 -19 32 -35 l10 -29 -75 0
c-40 0 -74 2 -74 5 0 2 5 15 11 29 15 32 49 42 96 30z"/>
<path d="M4078 2729 c-32 -12 -58 -64 -58 -118 0 -81 40 -121 122 -121 71 0
86 8 90 46 3 27 0 34 -13 34 -11 0 -19 -9 -21 -22 -3 -20 -10 -23 -50 -26 -66
-4 -88 19 -88 93 0 74 22 97 88 93 41 -3 47 -6 46 -25 0 -17 5 -23 20 -23 17
0 21 6 20 32 -1 25 -6 34 -25 39 -35 10 -100 9 -131 -2z"/>
<path d="M4333 2720 c-57 -34 -67 -141 -19 -197 44 -51 161 -40 191 18 18 34
19 108 3 144 -24 54 -115 72 -175 35z m110 -19 c30 -11 40 -39 39 -101 0 -33
-6 -49 -22 -62 -29 -24 -82 -23 -111 1 -20 16 -24 28 -24 76 0 48 4 60 24 76
26 21 56 24 94 10z"/>
<path d="M1766 2715 c-4 -11 2 -15 20 -15 l25 0 -3 -87 c-3 -77 -5 -88 -20
-85 -12 2 -18 -4 -18 -15 0 -15 9 -18 55 -18 46 0 55 3 55 18 0 10 -8 17 -20
17 -18 0 -20 7 -20 75 l0 74 38 11 c20 7 51 10 67 8 l30 -3 3 -87 c3 -83 2
-86 -18 -81 -15 4 -20 1 -20 -13 0 -16 8 -19 55 -19 46 0 55 3 55 18 0 10 -8
17 -20 17 -19 0 -20 6 -19 85 1 55 -3 91 -11 100 -15 18 -85 20 -126 5 -19 -8
-30 -8 -38 0 -15 15 -63 12 -70 -5z"/>
<path d="M3860 2715 c0 -9 9 -15 25 -15 25 0 25 -1 25 -89 l0 -88 -25 5 c-18
3 -25 0 -25 -11 0 -12 15 -16 65 -19 57 -3 65 -1 65 15 0 13 -6 17 -21 15 -21
-3 -21 0 -20 100 l2 102 -45 0 c-34 0 -46 -4 -46 -15z"/>
<path d="M4506 2492 c-3 -5 1 -9 9 -9 8 0 12 4 9 9 -3 4 -7 8 -9 8 -2 0 -6 -4
-9 -8z"/>
<path d="M3277 2256 c-27 -32 -33 -46 -24 -55 8 -8 21 -1 53 30 36 35 40 44
29 55 -19 19 -18 19 -58 -30z"/>
<path d="M2040 2275 c0 -9 9 -15 23 -15 22 0 22 -1 22 -150 0 -149 0 -150 -22
-150 -15 0 -23 -6 -23 -17 0 -17 11 -18 128 -13 91 4 134 9 146 19 37 31 50
74 51 161 0 71 -4 91 -22 121 -32 51 -58 59 -188 59 -96 0 -115 -3 -115 -15z
m239 -30 c34 -17 41 -32 48 -110 7 -73 -10 -140 -40 -159 -12 -8 -55 -16 -94
-18 l-73 -4 0 153 0 153 65 0 c38 0 78 -6 94 -15z"/>
<path d="M3682 2250 c-1 -27 3 -30 29 -30 26 0 29 3 29 30 0 26 -4 30 -28 30
-25 0 -29 -4 -30 -30z"/>
<path d="M3017 2243 c-4 -3 -7 -24 -7 -45 0 -31 -3 -38 -20 -38 -11 0 -20 -7
-20 -15 0 -8 9 -15 20 -15 17 0 20 -8 22 -92 3 -87 4 -93 29 -107 30 -17 79
-8 79 14 0 10 -11 15 -34 15 l-35 0 -3 85 -3 85 38 0 c26 0 37 4 37 15 0 11
-11 15 -38 15 l-37 0 3 45 c3 34 1 45 -10 45 -8 0 -18 -3 -21 -7z"/>
<path d="M1710 2158 c-13 -7 -30 -25 -37 -38 -15 -30 -17 -109 -3 -144 17 -46
86 -66 169 -50 27 6 31 10 31 40 0 27 -4 34 -20 34 -15 0 -19 -6 -17 -22 2
-21 -3 -23 -44 -26 -53 -3 -83 16 -93 61 l-6 27 96 0 96 0 -7 43 c-4 23 -15
50 -25 61 -23 24 -105 32 -140 14z m110 -38 c39 -39 27 -50 -55 -50 -50 0 -75
-4 -75 -12 0 -6 -3 -9 -6 -6 -6 6 12 41 35 71 19 24 76 22 101 -3z"/>
<path d="M2459 2155 c-68 -37 -63 -192 7 -224 27 -12 84 -14 131 -5 25 5 29
10 29 40 0 26 -4 34 -18 34 -13 0 -18 -8 -18 -25 0 -23 -4 -25 -44 -25 -52 0
-96 30 -96 66 0 24 1 24 90 24 l90 0 0 30 c0 41 -18 76 -47 89 -33 15 -93 13
-124 -4z m113 -32 c10 -9 18 -24 18 -35 0 -16 -9 -18 -70 -18 -56 0 -70 3 -70
15 0 46 84 73 122 38z"/>
<path d="M3208 2163 c-24 -4 -28 -9 -28 -39 0 -27 4 -34 19 -34 14 0 18 5 14
19 -9 34 75 43 108 10 35 -35 22 -52 -43 -56 -32 -2 -68 -7 -81 -12 -50 -19
-41 -115 11 -128 14 -3 48 1 76 10 36 12 52 13 57 5 4 -6 21 -12 38 -13 25 -2
31 1 31 16 0 12 -7 19 -20 19 -18 0 -20 7 -20 83 0 71 -3 87 -20 102 -20 18
-90 27 -142 18z m130 -164 c-2 -18 -14 -25 -55 -37 -62 -17 -86 -6 -81 37 3
24 7 26 63 31 68 6 78 2 73 -31z"/>
<path d="M3555 2150 c-60 -24 -55 -23 -55 -5 0 10 -11 15 -35 15 -24 0 -35 -5
-35 -15 0 -8 9 -15 20 -15 19 0 20 -7 20 -89 0 -84 -1 -89 -20 -84 -15 4 -20
0 -20 -14 0 -16 8 -19 60 -18 50 0 60 3 60 18 0 11 -8 17 -22 17 -22 0 -23 4
-23 70 l0 70 38 15 c48 19 50 19 42 -5 -5 -16 -2 -20 14 -20 18 0 21 6 21 40
0 22 -3 40 -7 40 -5 -1 -30 -10 -58 -20z"/>
<path d="M3861 2156 c-35 -19 -50 -54 -51 -116 0 -43 5 -61 23 -84 45 -56 173
-43 197 20 13 33 13 120 0 145 -24 44 -118 64 -169 35z m104 -22 c29 -11 48
-62 40 -110 -7 -49 -33 -74 -78 -74 -42 0 -64 16 -77 54 -14 42 1 110 28 125
19 12 63 14 87 5z"/>
<path d="M2670 2145 c0 -8 9 -15 20 -15 18 0 20 -7 20 -85 0 -78 -2 -85 -20
-85 -12 0 -20 -7 -20 -18 0 -14 9 -17 58 -15 43 1 58 5 60 17 2 11 -4 16 -20
16 -22 0 -23 3 -22 71 1 38 5 74 10 79 17 15 79 27 102 19 20 -8 22 -15 22
-93 0 -79 -1 -84 -20 -79 -15 4 -20 0 -20 -13 0 -17 8 -19 57 -18 47 1 59 5
62 19 2 14 -2 17 -18 12 -20 -5 -21 -2 -21 83 0 67 -4 92 -16 104 -18 19 -77
21 -124 4 -26 -9 -35 -9 -38 0 -6 18 -72 15 -72 -3z"/>
<path d="M3650 2145 c0 -9 9 -15 25 -15 25 0 25 -1 25 -85 0 -84 0 -85 -25
-85 -17 0 -25 -5 -25 -17 0 -15 10 -18 65 -18 56 0 65 2 65 18 0 13 -6 17 -22
15 -22 -3 -23 0 -26 100 l-3 102 -39 0 c-29 0 -40 -4 -40 -15z"/>
<path d="M2100 1653 c0 -16 6 -23 20 -23 19 0 20 -7 20 -155 0 -145 -1 -155
-19 -155 -10 0 -21 -9 -24 -20 -5 -19 0 -20 164 -20 l169 0 0 65 0 65 -30 0
c-29 0 -30 -2 -30 -45 l0 -45 -85 0 -85 0 0 155 0 155 30 0 c24 0 30 4 30 23
0 21 -4 22 -80 22 -76 0 -80 -1 -80 -22z m95 -13 c-7 -12 -45 -14 -45 -2 0 4
11 9 26 10 14 1 23 -2 19 -8z m-18 -182 c-2 -29 -3 -8 -3 47 0 55 1 79 3 53 2
-26 2 -71 0 -100z m20 -155 c-2 -2 -15 1 -28 6 -13 5 -18 10 -11 10 8 1 10 6
6 14 -4 6 2 3 14 -7 12 -11 20 -21 19 -23z m203 13 c0 -3 -4 -8 -10 -11 -5 -3
-10 -1 -10 4 0 6 5 11 10 11 6 0 10 -2 10 -4z"/>
<path d="M2430 1651 c0 -20 4 -23 28 -18 54 11 87 16 70 11 -10 -3 -19 -15
-19 -27 -1 -17 -2 -18 -6 -4 -2 9 -9 17 -14 17 -8 0 -15 -193 -9 -260 6 -69
48 -95 155 -95 141 0 165 33 165 230 0 118 1 125 20 125 14 0 20 7 20 23 0 21
-4 22 -80 22 -77 1 -80 0 -80 -22 0 -19 5 -23 30 -23 l30 0 0 -133 c0 -118 -2
-136 -19 -151 -23 -21 -79 -31 -126 -22 -53 10 -65 46 -65 191 l0 115 35 0
c30 0 34 3 32 21 -3 18 -11 20 -85 22 -80 2 -82 1 -82 -22z m354 -10 c10 -15
-18 -19 -32 -5 -11 12 -9 14 7 14 11 0 22 -4 25 -9z m-4 -235 c0 -3 -4 -8 -10
-11 -5 -3 -10 -1 -10 4 0 6 5 11 10 11 6 0 10 -2 10 -4z m-273 -38 c-3 -7 -5
-2 -5 12 0 14 2 19 5 13 2 -7 2 -19 0 -25z m252 -34 c-6 -8 -15 -12 -18 -8 -3
4 0 9 7 11 6 3 9 10 6 15 -4 7 -2 8 5 4 9 -6 9 -11 0 -22z m-219 1 c0 -12 -19
-12 -23 0 -4 9 -1 12 9 8 7 -3 14 -7 14 -8z m20 -19 c0 -3 -4 -8 -10 -11 -5
-3 -10 -1 -10 4 0 6 5 11 10 11 6 0 10 -2 10 -4z m165 -6 c-3 -5 -12 -10 -18
-10 -7 0 -6 4 3 10 19 12 23 12 15 0z"/>
<path d="M2945 1665 c-22 -8 -41 -15 -42 -15 0 0 -6 -14 -12 -31 -15 -43 -14
-75 3 -108 16 -30 50 -44 156 -60 69 -11 90 -27 90 -68 0 -46 -32 -63 -120
-63 l-80 0 0 45 c0 43 -1 45 -30 45 -30 0 -30 0 -30 -60 0 -66 -9 -60 110 -75
62 -7 160 11 183 33 27 27 33 92 13 134 -19 39 -44 50 -156 67 -68 11 -90 27
-90 67 0 41 25 54 106 54 l74 0 0 -40 c0 -38 2 -40 30 -40 30 0 30 1 30 54 0
64 -2 65 -115 72 -57 3 -92 0 -120 -11z m-8 -43 c-27 -29 -22 -82 10 -109 14
-13 21 -23 16 -23 -6 0 -16 7 -23 15 -7 8 -17 12 -24 8 -6 -3 -8 -3 -4 2 4 4
3 14 -3 21 -7 8 -8 26 -3 46 4 18 7 37 6 41 -2 5 2 6 8 2 5 -3 13 1 16 10 4 9
9 13 12 10 3 -2 -2 -13 -11 -23z m192 -158 c10 -9 -35 -3 -49 6 -11 8 -7 9 15
4 17 -4 32 -8 34 -10z m41 -35 c0 -24 -12 -24 -27 0 -10 15 -10 21 0 24 18 6
27 -2 27 -24z m10 -39 c0 -5 -4 -10 -10 -10 -5 0 -10 5 -10 10 0 6 5 10 10 10
6 0 10 -4 10 -10z m-3 -36 c0 -7 -4 -11 -9 -8 -4 3 -8 -3 -8 -12 0 -15 -2 -16
-12 -5 -11 11 -10 14 0 18 6 3 10 8 8 12 -3 4 1 8 8 8 7 0 13 -6 13 -13z
m-243 -46 c7 -5 4 -8 -6 -8 -12 0 -18 7 -17 23 0 15 2 17 6 7 3 -8 11 -18 17
-22z"/>
<path d="M3323 1660 c-51 -26 -75 -72 -81 -154 -7 -89 12 -159 53 -195 38 -33
101 -47 167 -37 103 17 138 67 138 203 0 147 -39 195 -163 201 -58 2 -80 -1
-114 -18z m217 -42 c0 -4 -5 -8 -12 -8 -6 0 -8 3 -5 7 4 3 -1 16 -10 27 -18
21 -18 21 5 2 12 -11 22 -23 22 -28z m-33 -12 c25 -21 28 -31 31 -100 6 -109
-3 -143 -41 -166 -40 -25 -114 -26 -146 -4 -33 24 -51 74 -51 144 0 67 18 122
47 139 10 6 44 11 75 11 46 0 62 -5 85 -24z m-197 7 c0 -5 -8 -17 -17 -28 -14
-18 -15 -18 -9 -2 3 10 6 23 6 28 0 5 5 9 10 9 6 0 10 -3 10 -7z m260 -58 c0
-5 -5 -3 -10 5 -5 8 -10 20 -10 25 0 6 5 3 10 -5 5 -8 10 -19 10 -25z m-284
-34 c-3 -5 -6 -37 -7 -72 -1 -46 -4 -58 -10 -42 -4 12 -7 44 -5 70 4 56 3 53
17 53 5 0 8 -4 5 -9z m294 -103 c0 -18 -2 -20 -9 -8 -6 8 -7 18 -5 22 9 14 14
9 14 -14z m-19 -47 c-7 -5 -13 -12 -13 -17 -1 -19 -10 -33 -25 -38 -12 -5 -13
-3 -6 6 5 7 17 26 27 41 10 16 20 26 24 22 4 -3 1 -10 -7 -14z m-248 -30 c-1
-2 5 -10 15 -18 15 -12 15 -13 0 -7 -15 5 -48 45 -48 59 0 3 8 -3 18 -12 10
-10 17 -20 15 -22z"/>
<path d="M2688 1213 c6 -2 18 -2 25 0 6 3 1 5 -13 5 -14 0 -19 -2 -12 -5z"/>
</g>
</svg>
